<svg xmlns="http://www.w3.org/2000/svg" id="Capa_1" data-name="Capa 1" viewBox="0 0 1080 1080"><defs><style>.cls-1{opacity:0.2;}.cls-2{fill:#006afb;}</style></defs><title>Op_1</title><g class="cls-1"><path class="cls-2" d="M302.72,74.51H707.78V1075H493.09V264.88H302.72Z"></path></g><path class="cls-2" d="M762.75,1034.59H548.05A14.53,14.53,0,0,1,533.52,1020V224.47H357.68a14.54,14.54,0,0,1-14.53-14.55V19.55A14.53,14.53,0,0,1,357.68,5H762.75a14.53,14.53,0,0,1,14.53,14.55V1020A14.54,14.54,0,0,1,762.75,1034.59Zm-200.17-29.1H748.21V34.1h-376V195.37H548.05a14.53,14.53,0,0,1,14.53,14.55Z"></path></svg>