<svg xmlns="http://www.w3.org/2000/svg" id="Capa_1" data-name="Capa 1" viewBox="0 0 1080 1080"><defs><style>.cls-1{opacity:0.2;}.cls-2{fill:#006afb;}</style></defs><title>Op_2</title><g class="cls-1"><path class="cls-2" d="M597.22,462.17Q634,410,634.05,361.4T602.1,280.07q-32-32.64-82-32.69-91.74,0-173.74,130.68L172.57,275.22Q240.67,169.56,322,115.37T529.1,61.13q125.8,0,221,79.93t95.21,217.53q0,75.07-38.2,143.86T666,678.29L490.89,860.42H874.53V1055H189.26V893.75L474.2,601.88Q560.41,514.27,597.22,462.17Z"></path></g><path class="cls-2" d="M926.32,1027.12H241.05A14.11,14.11,0,0,1,226.93,1013V851.74a14.07,14.07,0,0,1,4-9.86L515.89,550c56.62-57.55,97.52-104,121.58-138h0c22.72-32.19,34.26-63.35,34.26-92.62,0-28.87-9.14-52.25-27.94-71.47s-42.28-28.41-71.93-28.41c-55.7,0-110.12,41.71-161.77,124.05a14.17,14.17,0,0,1-19.15,4.64L217.17,245.36a14.13,14.13,0,0,1-4.69-19.81C258.75,153.8,310.38,98.62,366,61.61,422.26,24,494.57,5,580.89,5,667.78,5,745.18,33,811,88.25c66.53,55.82,100.25,132.66,100.25,228.33,0,52.28-13.45,103-40,150.73-26,46.75-74.2,106.9-143.25,178.77L575.84,804.28H926.32a14.11,14.11,0,0,1,14.11,14.13V1013A14.11,14.11,0,0,1,926.32,1027.12ZM255.16,998.87h657V832.54H542.68a14.13,14.13,0,0,1-10.17-23.92L707.64,626.49C775,556.42,821.75,498.22,846.56,453.57,870.73,410.09,883,364,883,316.58c0-88.16-29.5-155.79-90.18-206.72S661,33.26,580.89,33.26c-80.64,0-147.69,17.42-199.25,51.85-49.18,32.74-95.34,81-137.34,143.49L393.6,317c55.14-83.44,115.07-125.73,178.26-125.73,37.11,0,68.1,12.42,92.12,36.92s36,55.12,36,91.22c0,35.22-13.27,71.87-39.42,108.92h0c-24.94,35.28-66.82,82.85-124.47,141.45L255.16,857.47ZM649,420.16h0Z"></path></svg>