<svg xmlns="http://www.w3.org/2000/svg" id="Capa_1" data-name="Capa 1" viewBox="0 0 1080 1080"><defs><style>.cls-1{opacity:0.2;}.cls-2{fill:#006afb;}</style></defs><title>Op_3</title><g class="cls-1"><path class="cls-2" d="M231.65,252.13V63.77H837.79v153L635.26,447.57q119,19.83,184.12,99.81t65.14,184.81Q884.52,888,779,976.51T509.24,1065q-164.31,0-332.81-116.1l90.63-175.61q140.2,99.16,250.67,99.13,66.56,0,109.75-32.59t43.19-94.15q0-61.65-49.56-97.75t-137.37-36.1q-46.73,0-131.7,26.9V475.87L541.79,252.13Z"></path></g><path class="cls-2" d="M563.62,1035c-112,0-226.74-39.92-341-118.64A14.37,14.37,0,0,1,218,897.93l90.64-175.61a14.41,14.41,0,0,1,21.08-5.16c90.52,64,172.06,96.48,242.36,96.48,41,0,75-10,101.09-29.66,25.2-19,37.47-46.05,37.47-82.67S696.38,636.6,667,615.18c-30.38-22.14-73.75-33.33-128.9-33.33-29.47,0-72.32,8.8-127.36,26.21A14.2,14.2,0,0,1,397.92,606a14.39,14.39,0,0,1-5.88-11.6V431.49a14.38,14.38,0,0,1,3.4-9.3l169.67-200H286a14.39,14.39,0,0,1-14.38-14.4V19.39A14.38,14.38,0,0,1,286,5H892.17a14.38,14.38,0,0,1,14.38,14.39v153a14.36,14.36,0,0,1-3.56,9.48L716.9,393.93c70.72,16.29,127.15,49.87,168,100,45.38,55.75,68.37,121,68.37,193.89,0,107.83-37.23,193.73-110.65,255.33C770,1004.11,676.11,1035,563.62,1035ZM249.45,899.8c105.84,70.64,211.47,106.42,314.17,106.42,105.54,0,193.19-28.63,260.5-85.09,66.62-55.91,100.4-134.42,100.4-233.32,0-66.1-20.83-125.24-61.92-175.73-41-50.28-100-82.14-175.33-94.71a14.4,14.4,0,0,1-8.46-23.66l199-226.78V33.79H300.41V193.35H596.17a14.4,14.4,0,0,1,11,23.7L420.8,436.77V574.89c49.53-14.68,88-21.83,117.32-21.83,61.36,0,110.43,13.09,145.84,38.86,36.81,26.87,55.47,63.68,55.47,109.39S723,782.49,690.52,806.93c-31.21,23.56-71.06,35.5-118.41,35.5-72.73,0-155.23-31.06-245.39-92.34Z"></path></svg>