<svg xmlns="http://www.w3.org/2000/svg" id="Capa_1" data-name="Capa 1" viewBox="0 0 1080 1080"><defs><style>.cls-1{opacity:0.2;}.cls-2{fill:#006afb;}</style></defs><title>Op_4</title><g class="cls-1"><path class="cls-2" d="M521.11,622.73V448.13H735.8v174.6H848.86V816H735.8v239H521.11V816H118.91V645.63L475.29,54.51H718.61L379.38,622.73Z"></path></g><path class="cls-2" d="M790.76,1034.59H576.07A14.53,14.53,0,0,1,561.54,1020V795.57H173.87A14.53,14.53,0,0,1,159.33,781V610.67a14.64,14.64,0,0,1,2.09-7.51L517.81,12a14.51,14.51,0,0,1,12.44-7H773.57a14.54,14.54,0,0,1,12.48,22L460,573.22H561.54v-160a14.53,14.53,0,0,1,14.53-14.55H790.76a14.53,14.53,0,0,1,14.53,14.55V573.22h98.54a14.53,14.53,0,0,1,14.53,14.54V781a14.53,14.53,0,0,1-14.53,14.54H805.29V1020A14.53,14.53,0,0,1,790.76,1034.59Zm-200.16-29.1H776.22V781a14.54,14.54,0,0,1,14.54-14.56h98.53V602.32H790.76a14.54,14.54,0,0,1-14.54-14.56v-160H590.6v160a14.54,14.54,0,0,1-14.53,14.56H434.34a14.55,14.55,0,0,1-12.47-22L748,34.1H538.47L188.4,614.73V766.47H576.07A14.54,14.54,0,0,1,590.6,781Z"></path></svg>