<svg xmlns="http://www.w3.org/2000/svg" id="Capa_1" data-name="Capa 1" viewBox="0 0 1080 1080"><defs><style>.cls-1{opacity:0.2;}.cls-2{fill:#006afb;}</style></defs><title>Op_5</title><g class="cls-1"><path class="cls-2" d="M797,78.13V267.55H409.84V431.66Q453.33,419,509.45,419q141.7,0,244.1,85.6T856,735.41Q856,880.58,750,975.29T488.42,1070q-199.21,0-332.5-147.32L271,762.77q12.6,12.6,33.66,30.86T381.79,842Q437.88,872.18,494,872.17t99.61-33.64q43.49-33.72,43.49-99.61t-47-101.7q-47-35.81-121.35-35.79T296.22,654.72L205,556.52V78.13Z"></path></g><path class="cls-2" d="M542.29,1030.39c-136.39,0-251.81-51.16-343.06-152a14.21,14.21,0,0,1-1-17.87l115-159.91a14.23,14.23,0,0,1,10.41-5.88,14.64,14.64,0,0,1,11.23,4.12q12.33,12.34,32.91,30.16c13.09,11.36,38.18,27,74.6,46.66C477.51,794.49,513,804,547.89,804c34.47,0,64.21-10,90.9-30.65,25.53-19.8,38-48.7,38-88.34s-13.54-69.17-41.38-90.36c-28.66-21.81-66.59-32.87-112.73-32.87-46.93,0-102.69,17.34-165.76,51.56a14.28,14.28,0,0,1-17.23-2.83l-91.2-98.19a14.27,14.27,0,0,1-3.8-9.71V24.26A14.24,14.24,0,0,1,258.89,10h592a14.25,14.25,0,0,1,14.25,14.26V213.68a14.25,14.25,0,0,1-14.25,14.26H478V359.46c25.72-5.66,54.35-8.56,85.36-8.56,97.41,0,182.61,29.94,253.23,88.92,71.35,59.63,107.53,141,107.53,241.72,0,100.57-37.24,184.84-110.67,250.51C740.41,997.28,649.2,1030.39,542.29,1030.39ZM228.17,867.67c84.36,89.08,190,134.2,314.12,134.2,99.68,0,184.52-30.65,252.12-91.08,67.12-60,101.18-137.15,101.18-229.25,0-93.2-31.84-165.12-97.3-219.85s-144.41-82.27-235-82.27c-35.86,0-68,4-95.63,12a14.23,14.23,0,0,1-18.22-13.67V213.68a14.25,14.25,0,0,1,14.24-14.26h373V38.52H273.14V497.05l79.94,86.06C484,514.82,587.3,522.27,652.62,572c34.92,26.58,52.62,64.59,52.62,113s-16.48,85.66-49,110.89c-62.26,48.14-147.88,47.43-227.32,4.8-38.81-20.91-64.9-37.33-79.76-50.23q-12.66-10.95-22.34-20Z"></path></svg>