<svg xmlns="http://www.w3.org/2000/svg" id="Page-1" width="999.749" height="211.417" viewBox="0 0 999.749 211.417"><g id="Group-2"><g id="Group" transform="translate(204.25)"><path id="opdemy" d="M37.923,211.416H0V42.836H35.648v13.9q14.158-18.2,39.946-18.2,27.3,0,44.623,19.209t17.318,49.285q0,28.307-17.7,47.39T75.846,173.5q-23.512,0-37.923-15.923ZM68.09,73.776a30.814,30.814,0,0,0-22.5,9.178,30.134,30.134,0,0,0-9.28,22.252,31.56,31.56,0,0,0,9.28,23.007,30.693,30.693,0,0,0,22.755,9.429,31.309,31.309,0,0,0,31.781-31.933,30.943,30.943,0,0,0-9.153-22.755Q81.819,73.776,68.09,73.776ZM251.588,0h37.784V168.58H253.6v-13.4q-14.358,17.692-38.54,17.692-27.709,0-45.467-19.082t-17.759-48.653q0-29.066,17.759-48.148t44.711-19.082q22.167,0,37.28,14.912ZM222.507,73.776q-14.07,0-23.114,8.926t-9.045,22.755q0,14.081,8.919,23.132T222,137.641q14.07,0,23.114-9.178t9.045-23.258a30.41,30.41,0,0,0-9.045-22.378Q236.074,73.776,222.507,73.776Zm174.1,57L398.375,129h38.3q-8.819,20.544-25.071,32.211a60.566,60.566,0,0,1-36.158,11.667q-27.717,0-46.993-19.656t-19.276-47.809q0-28.407,19.15-48.19T374.69,37.438q28.221,0,47.371,19.91t19.15,49.331a61.806,61.806,0,0,1-1.008,10.4H345.713a25.387,25.387,0,0,0,8.945,17.12q7.685,6.468,18.772,6.468Q386.029,140.666,396.612,130.774Zm-50.025-38.28H403.8a26.164,26.164,0,0,0-9.917-15.947,29.918,29.918,0,0,0-18.817-6.075Q351.418,70.472,346.587,92.495Zm152.3,77.079H461.016V42.848h35.851V56.281q11.361-17.742,34.589-17.742,24.238,0,36.609,22.557,13.886-22.557,40.144-22.557,19.441,0,32.569,12.673a41.274,41.274,0,0,1,12.371,22.811q1.515,7.1,1.515,26.359v69.192H616.793V102.156q0-14.954-4.292-21.543t-14.391-6.59q-20.7,0-20.7,26.359v69.192H539.535V100.382q0-26.359-19.441-26.359-21.208,0-21.208,26.359ZM730.54,116.193l24.613-73.249H795.5l-63.69,168.473H691.717l20.046-48.5-47.2-119.977h40.346Z" fill="#fff" fill-rule="evenodd"></path></g><g id="Group-13"><path id="Combined-Shape" d="M172,25.745a97.31,97.31,0,0,0-15.247,171.071,102.226,102.226,0,0,1-52.766,14.6C46.556,211.416,0,164.089,0,105.708S46.556,0,103.986,0A102.6,102.6,0,0,1,172,25.745ZM55.728,129.78V75.614c-2.608-.106-5.14-.191-7.555-.267a2.41,2.41,0,0,0-2.451,2.445v63.092a2.416,2.416,0,0,0,2.25,2.442c12.579.7,29.151,1.439,44.765,5.326a79.038,79.038,0,0,0-34.1-15.267A3.643,3.643,0,0,1,55.728,129.78ZM63.111,57.52v69.253c11.98,2.685,27.326,8.541,40.575,21.225V75.321C95.278,64.543,79.693,57.675,65.974,55.1A2.433,2.433,0,0,0,63.111,57.52Zm30.112,56.423a3.586,3.586,0,0,1-4.982,1.227c-1.959-1.219-6.975-4.134-11.273-4.875A3.688,3.688,0,0,1,74,106.035a3.631,3.631,0,0,1,4.177-3.028c5.342.919,10.966,4.062,13.841,5.856A3.74,3.74,0,0,1,93.222,113.943ZM93.3,90.582a3.582,3.582,0,0,1-5.044.919,29.933,29.933,0,0,0-11.292-4.7A3.688,3.688,0,0,1,74,82.544a3.631,3.631,0,0,1,4.177-3.028A37.085,37.085,0,0,1,92.4,85.438,3.739,3.739,0,0,1,93.3,90.582Z" fill="#fff" fill-rule="evenodd"></path><g id="Group-12" transform="translate(45.721 55.056)"><g id="book-5" transform="translate(64.5)"><path id="Path" d="M48.507,19.072V74.456a3.683,3.683,0,0,1-2.913,3.656A78.494,78.494,0,0,0,11.5,93.6c15.59-3.936,32.12-4.692,44.765-5.4a2.437,2.437,0,0,0,2.25-2.476V21.461a2.431,2.431,0,0,0-2.374-2.48C54.028,18.978,51.433,19,48.507,19.072Z" fill="#fff" fill-rule="evenodd"></path><path id="Shape" d="M38.26.042C24.607,2.61,8.948,9.465.549,20.265V92.941C13.8,80.257,29.143,74.4,41.123,71.716V2.464A2.433,2.433,0,0,0,38.26.042Zm-10.994,55.2c-4.3.742-9.313,3.656-11.273,4.875a3.586,3.586,0,0,1-4.982-1.227,3.74,3.74,0,0,1,1.206-5.08c2.875-1.793,8.5-4.937,13.841-5.856a3.629,3.629,0,0,1,4.177,3.028A3.688,3.688,0,0,1,27.266,55.238Zm0-23.491a29.933,29.933,0,0,0-11.292,4.7,3.582,3.582,0,0,1-5.044-.919,3.739,3.739,0,0,1,.9-5.144A37.085,37.085,0,0,1,26.058,24.46a3.629,3.629,0,0,1,4.177,3.028A3.688,3.688,0,0,1,27.266,31.747Z" fill="#fff"></path></g></g></g></g></svg>