<svg xmlns="http://www.w3.org/2000/svg" xmlns:xlink="http://www.w3.org/1999/xlink" width="1000px" height="212px" viewBox="0 0 1000 212"><title>Group 2</title><desc>Created with Sketch.</desc><g id="Page-1" stroke="none" stroke-width="1" fill="none" fill-rule="evenodd"><g id="Group-2" fill="#006AFB"><g id="Group" transform="translate(204.249830, 0.000000)"><path d="M37.9231058,211.41649 L0,211.41649 L0,42.8361156 L35.6477194,42.8361156 L35.6477194,56.7370461 C45.0864063,44.6052643 58.4014969,38.5394644 75.5933908,38.5394644 C93.7965726,38.5394644 108.670709,44.9422532 120.216245,57.7480229 C131.761782,70.5537925 137.534464,86.9820006 137.534464,107.03314 C137.534464,125.904801 131.635373,141.701154 119.837014,154.422676 C108.038656,167.144197 93.3752014,173.504862 75.8462115,173.504862 C60.1712494,173.504862 47.5303406,168.197287 37.9231058,157.581978 L37.9231058,211.41649 Z M68.0899704,73.7755462 C59.2760312,73.7755462 51.7758204,76.8346849 45.589113,82.9530542 C39.4024057,89.0714234 36.3090984,96.4887872 36.3090984,105.205368 C36.3090984,114.257202 39.4024057,121.926002 45.589113,128.211998 C51.7758204,134.497994 59.3607793,137.640944 68.3442174,137.640944 C77.3276555,137.640944 84.8702404,134.581806 90.9721983,128.463436 C97.0741562,122.345067 100.125089,114.760079 100.125089,105.708245 C100.125089,96.6564113 97.0741562,89.0714234 90.9721983,82.9530542 C84.8702404,76.8346849 77.2429073,73.7755462 68.0899704,73.7755462 Z M251.588318,0 L289.372511,0 L289.372511,168.580375 L253.603475,168.580375 L253.603475,155.184933 C244.031431,166.979721 231.184934,172.877026 215.063598,172.877026 C196.591233,172.877026 181.435725,166.516361 169.596619,153.79484 C157.757512,141.073319 151.838048,124.855729 151.838048,105.141583 C151.838048,85.7644316 157.757512,69.7153361 169.596619,56.9938149 C181.435725,44.2722937 196.339341,37.9116285 214.307914,37.9116285 C229.085806,37.9116285 241.512483,42.8822146 251.588318,52.8235357 L251.588318,0 Z M222.506937,73.7755462 C213.127112,73.7755462 205.422371,76.7508729 199.392484,82.7016156 C193.362596,88.6523583 190.347698,96.2373461 190.347698,105.456807 C190.347698,114.843894 193.320723,122.5546 199.266862,128.589156 C205.213001,134.623712 212.792121,137.640944 222.004449,137.640944 C231.384274,137.640944 239.089015,134.581806 245.118902,128.463436 C251.14879,122.345067 254.163689,114.592455 254.163689,105.205368 C254.163689,96.3211607 251.14879,88.8618909 245.118902,82.8273349 C239.089015,76.7927789 231.551768,73.7755462 222.506937,73.7755462 Z M396.611597,130.774362 L398.375398,128.998949 L436.675071,128.998949 C430.795706,142.695065 422.438734,153.431982 411.603904,161.210023 C400.769073,168.988064 388.716555,172.877026 375.445988,172.877026 C356.967983,172.877026 341.303909,166.32497 328.453297,153.220662 C315.602684,140.116354 309.177474,124.180063 309.177474,105.411312 C309.177474,86.473473 315.560689,70.4103683 328.327311,57.2215162 C341.093932,44.032664 356.548032,37.4383369 374.690073,37.4383369 C393.504042,37.4383369 409.294101,44.0749353 422.060722,57.3483314 C434.827344,70.6217275 441.210559,87.0652741 441.210559,106.679464 C441.210559,109.723046 440.8746,113.189295 440.202673,117.078315 L345.713347,117.078315 C346.553256,124.180005 349.534889,129.886634 354.658336,134.198374 C359.781783,138.510114 366.039014,140.665952 373.430216,140.665952 C381.829309,140.665952 389.556359,137.368788 396.611597,130.774362 Z M346.586848,92.4947146 L403.801185,92.4947146 C402.444986,85.9132296 399.139302,80.5974946 393.884033,76.54735 C388.628764,72.4972054 382.35644,70.4721635 375.066874,70.4721635 C359.301066,70.4721635 349.807819,77.8129405 346.586848,92.4947146 Z M498.886811,169.573643 L461.015522,169.573643 L461.015522,42.8481318 L496.867009,42.8481318 L496.867009,56.281036 C504.441304,44.4532625 515.970893,38.5394644 531.456119,38.5394644 C547.614617,38.5394644 559.817466,46.0584362 568.065032,61.0966055 C577.322505,46.0584362 590.70356,38.5394644 608.208599,38.5394644 C621.16906,38.5394644 632.025388,42.7636059 640.777907,51.2120156 C647.342297,57.4638387 651.466018,65.0672934 653.149195,74.0226077 C654.159101,78.7537171 654.664046,87.5399314 654.664046,100.381514 L654.664046,169.573643 L616.792757,169.573643 L616.792757,102.155671 C616.792757,92.1865478 615.362079,85.0055073 612.500678,80.6123343 C609.639277,76.2191612 604.842295,74.0226077 598.109588,74.0226077 C584.307538,74.0226077 577.406617,82.8088219 577.406617,100.381514 L577.406617,169.573643 L539.535328,169.573643 L539.535328,100.381514 C539.535328,82.8088219 533.055194,74.0226077 520.094733,74.0226077 C505.956047,74.0226077 498.886811,82.8088219 498.886811,100.381514 L498.886811,169.573643 Z M730.540424,116.192895 L755.153762,42.9439746 L795.499337,42.9439746 L731.809153,211.41649 L691.717324,211.41649 L711.763238,162.920654 L664.566528,42.9439746 L704.912103,42.9439746 L730.540424,116.192895 Z" id="opdemy"></path></g><g id="Group-13"><path d="M171.999857,25.7445959 C137.200837,40.0722003 112.654594,74.7579644 112.654594,115.271742 C112.654594,149.567107 130.24397,179.686228 156.75239,196.815205 C141.283929,206.093294 123.246434,211.41649 103.985899,211.41649 C46.5560727,211.41649 -3.41060513e-13,164.089297 -3.41060513e-13,105.708245 C-3.41060513e-13,47.3271935 46.5560727,-4.61852778e-14 103.985899,-4.61852778e-14 C129.991158,-4.61852778e-14 153.766817,9.70416361 171.999857,25.7445959 Z M55.7275144,129.780332 L55.7275144,75.6143531 C53.1199968,75.5087064 50.5876732,75.423602 48.1724237,75.3475461 C46.830354,75.3054831 45.7214809,76.4120841 45.7214809,77.792095 L45.7214809,140.884248 C45.7214809,142.183801 46.7087587,143.256409 47.9715892,143.326106 C60.5501608,144.022593 77.1225795,144.765544 92.7367509,148.65222 C81.0840645,139.422801 68.3296437,135.253177 58.6400911,133.384794 C56.9506063,133.059784 55.7275144,131.543557 55.7275144,129.780332 Z M63.1106903,57.5197655 L63.1106903,126.772653 C75.0910739,129.457809 90.4367881,135.31342 103.685512,147.997703 L103.685512,75.3211191 C95.2782256,64.5430501 79.6933387,57.6754553 65.9739996,55.098198 C64.48533,54.8185969 63.1106903,55.9761702 63.1106903,57.5197655 Z M93.2223058,113.943026 C92.1798506,115.681972 89.9497453,116.233784 88.2407468,115.169822 C86.2814625,113.950416 81.2660811,111.036159 76.9682181,110.294662 C74.9944385,109.954707 73.6657006,108.047999 73.999093,106.035364 C74.3324854,104.022729 76.2023819,102.667833 78.1761616,103.007789 C83.5176878,103.926654 89.1418727,107.070011 92.0167782,108.8634 C93.7248103,109.927609 94.2635531,112.201369 93.2223058,113.943026 Z M93.304446,90.5821672 C92.1612482,92.2568178 89.897079,92.6647644 88.2600739,91.5010325 C85.8997523,89.8258892 81.5269969,87.5890802 76.9682181,86.803241 C74.9944385,86.4632854 73.6657006,84.5565782 73.999093,82.5439428 C74.3324854,80.5313074 76.2023819,79.1764121 78.1761616,79.5163676 C83.9114773,80.5042095 89.2868259,83.2238539 92.4033201,85.4384919 C94.0461233,86.6037018 94.4495764,88.9070239 93.304446,90.5821672 Z" id="Combined-Shape"></path><g id="Group-12" transform="translate(45.721481, 55.056378)"><g id="book-5" transform="translate(64.499946, 0.000000)"><path d="M48.5065759,19.0720677 L48.5065759,74.4564662 C48.5065759,76.2446598 47.2834841,77.7823575 45.5939992,78.1122185 C35.9044467,80.0070589 23.1500258,84.2357275 11.4973395,93.5958421 C27.0874774,89.6595841 43.6175399,88.9041281 56.2625012,88.194059 C57.5253316,88.1231265 58.5126095,87.0355774 58.5126095,85.7176216 L58.5126095,21.4614515 C58.5126095,20.0936446 57.4508515,18.9832781 56.1385263,18.9812939 C54.02786,18.9780697 51.433192,18.998655 48.5065759,19.0720677 Z" id="Path"></path><path d="M38.2603323,0.0418736858 C24.6074302,2.6095288 8.94837546,9.46482062 0.548577977,20.2645904 L0.548577977,92.9413258 C13.7973022,80.2570159 29.1430164,74.4013925 41.1234,71.7162308 L41.1234,2.4636925 C41.1234,0.920094015 39.7487603,-0.237974363 38.2603323,0.0418736858 Z M27.2658722,55.2382062 C22.9680093,55.9797049 17.9526279,58.8939676 15.9933435,60.1133759 C14.2841035,61.1775868 12.0539982,60.6250347 11.0117845,58.8865773 C9.97053725,57.1449173 10.50928,54.8711519 12.2173122,53.806941 C15.0922177,52.0135486 20.7164026,48.870185 26.0579287,47.9513177 C28.0317084,47.608898 29.9016049,48.9662596 30.2349973,50.9788991 C30.5683897,52.9915387 29.2396519,54.8982499 27.2658722,55.2382062 Z M27.2658722,31.7467361 C22.7070935,32.532577 18.334338,34.7693907 15.9740164,36.4445374 C14.3384609,37.6072864 12.0740501,37.2018023 10.9296444,35.5256702 C9.78451395,33.8505234 10.1879671,31.5471966 11.8307702,30.3819842 C14.9472645,28.1673416 20.322613,25.4476916 26.0579287,24.4598477 C28.0317084,24.117428 29.9016049,25.4747895 30.2349973,27.4874291 C30.5683897,29.5000687 29.2396519,31.4067799 27.2658722,31.7467361 Z" id="Shape" fill-rule="nonzero"></path></g></g></g></g></g></svg>