<svg xmlns="http://www.w3.org/2000/svg" id="Page-1" width="1863.71" height="394.118" viewBox="0 0 1863.71 394.118"><g id="Group-2" transform="translate(0 0)"><g id="Group" transform="translate(380.758 0)"><path id="opdemy" d="M70.7,394.118H0V79.854H66.454v25.914Q92.847,71.844,140.92,71.844q50.9,0,83.185,35.808t32.284,91.876q0,52.77-32.991,88.342t-82.007,35.573q-43.831,0-70.7-29.683Zm56.236-256.587q-24.646,0-41.946,17.109a56.175,56.175,0,0,0-17.3,41.482q0,25.311,17.3,42.888t42.42,17.577q25.12,0,42.183-17.109t17.063-42.42q0-25.311-17.063-42.42T126.932,137.531ZM469.005,0h70.436V314.264h-66.68V289.292Q446,322.274,400.917,322.274q-51.654,0-84.759-35.573T283.053,196q0-54.184,33.105-89.756t83.35-35.573q41.323,0,69.5,27.8ZM414.792,137.531q-26.229,0-43.089,16.64t-16.861,42.42q0,26.249,16.627,43.123t42.387,16.874q26.229,0,43.089-17.109t16.861-43.357q0-24.843-16.861-41.717T414.792,137.531ZM739.354,243.787l3.288-3.31h71.4q-16.44,38.3-46.737,60.047a112.906,112.906,0,0,1-67.4,21.749q-51.669,0-87.6-36.643t-35.934-89.125q0-52.955,35.7-89.834t86.428-36.879q52.609,0,88.307,37.116t35.7,91.962a115.216,115.216,0,0,1-1.879,19.385H644.471q2.349,19.858,16.675,31.915t34.994,12.057Q719.626,262.226,739.354,243.787ZM646.1,172.427H752.757A48.774,48.774,0,0,0,734.27,142.7q-14.7-11.325-35.079-11.325Q655.106,131.373,646.1,172.427ZM930.014,316.115h-70.6V79.877h66.833v25.041q21.18-33.074,64.48-33.073,45.183,0,68.245,42.051,25.887-42.051,74.835-42.051,36.241,0,60.715,23.624a76.942,76.942,0,0,1,23.062,42.523q2.824,13.229,2.824,49.138V316.115h-70.6V190.436q0-27.876-8-40.161t-26.828-12.284q-38.594,0-38.594,49.138V316.115h-70.6V187.129q0-49.138-36.241-49.138-39.535,0-39.535,49.138ZM1361.857,216.6l45.884-136.549h75.211l-118.73,314.063h-74.738l37.369-90.4L1238.87,80.055h75.211Z" fill="#f8fbfd" fill-rule="evenodd"></path></g><g id="Group-13"><path id="Combined-Shape" d="M320.638,47.993c-64.872,26.709-110.63,91.37-110.63,166.895A180.566,180.566,0,0,0,292.214,366.9a190.567,190.567,0,0,1-98.366,27.219C86.789,394.118,0,305.892,0,197.059S86.789,0,193.848,0A191.273,191.273,0,0,1,320.638,47.993ZM103.886,241.934V140.959c-4.861-.2-9.582-.356-14.084-.5a4.492,4.492,0,0,0-4.569,4.557V262.633a4.5,4.5,0,0,0,4.195,4.552c23.449,1.3,54.343,2.683,83.45,9.929-21.723-17.205-45.5-24.978-63.562-28.461A6.791,6.791,0,0,1,103.886,241.934ZM117.65,107.227v129.1c22.334,5.006,50.941,15.922,75.639,39.567V140.412c-15.673-20.092-44.726-32.895-70.3-37.7A4.536,4.536,0,0,0,117.65,107.227ZM173.783,212.41A6.684,6.684,0,0,1,164.5,214.7c-3.652-2.273-13-7.706-21.014-9.088a6.875,6.875,0,0,1-5.535-7.94,6.769,6.769,0,0,1,7.787-5.644c9.958,1.713,20.442,7.573,25.8,10.916A6.971,6.971,0,0,1,173.783,212.41Zm.153-43.549a6.677,6.677,0,0,1-9.4,1.713,55.8,55.8,0,0,0-21.05-8.758,6.875,6.875,0,0,1-5.535-7.94,6.769,6.769,0,0,1,7.787-5.644,69.133,69.133,0,0,1,26.522,11.04A6.97,6.97,0,0,1,173.936,168.861Z" transform="translate(0 0)" fill="#f8fbfd" fill-rule="evenodd"></path><g id="Group-12" transform="translate(206.495 102.635)"><g id="book-5" transform="translate(0 0)"><path id="Path" d="M80.489,19.151V122.4a6.866,6.866,0,0,1-5.43,6.815C57,132.744,33.22,140.627,11.5,158.076c29.063-7.338,59.878-8.746,83.45-10.07a4.542,4.542,0,0,0,4.195-4.617V23.605a4.531,4.531,0,0,0-4.426-4.623C90.782,18.976,85.945,19.014,80.489,19.151Z" transform="translate(8.913 16.403)" fill="#f8fbfd" fill-rule="evenodd"></path><path id="Shape" d="M70.85.078C45.4,4.865,16.207,17.644.549,37.777V173.259c24.7-23.646,53.305-34.562,75.639-39.567V4.593A4.535,4.535,0,0,0,70.85.078Zm-20.5,102.9c-8.012,1.382-17.362,6.815-21.014,9.088a6.684,6.684,0,0,1-9.287-2.287,6.971,6.971,0,0,1,2.247-9.469c5.359-3.343,15.844-9.2,25.8-10.916a6.766,6.766,0,0,1,7.787,5.644A6.875,6.875,0,0,1,50.354,102.974Zm0-43.792A55.8,55.8,0,0,0,29.3,67.939a6.677,6.677,0,0,1-9.4-1.713,6.97,6.97,0,0,1,1.68-9.589A69.133,69.133,0,0,1,48.1,45.6a6.766,6.766,0,0,1,7.787,5.644A6.875,6.875,0,0,1,50.354,59.182Z" transform="translate(-0.549 0)" fill="#f8fbfd"></path></g></g></g></g></svg>